<svg width="14" height="15" viewBox="0 0 14 15" fill="none" xmlns="http://www.w3.org/2000/svg">
<path d="M6.11607 10.8839C5.89286 11.1071 5.53571 11.1071 5.3125 10.8839L2.11607 7.6875C1.89286 7.46429 1.89286 7.10714 2.11607 6.88393L3.02679 5.97321C3.25 5.75 3.60714 5.75 3.83036 5.97321L5.71429 7.85714L9.88393 3.6875C10.1071 3.46428 10.4643 3.46428 10.6875 3.6875L11.5982 4.59821C11.8214 4.82143 11.8214 5.17857 11.5982 5.40179L6.11607 10.8839ZM13.7143 3C13.7143 1.58036 12.5625 0.428571 11.1429 0.428571H2.57143C1.15179 0.428571 0 1.58036 0 3V11.5714C0 12.9911 1.15179 14.1429 2.57143 14.1429H11.1429C12.5625 14.1429 13.7143 12.9911 13.7143 11.5714V3Z" fill="#BA0000"/>
</svg>
